<svg id="Ebene_1" data-name="Ebene 1" xmlns="http://www.w3.org/2000/svg" xmlns:xlink="http://www.w3.org/1999/xlink"
     viewBox="0 0 199.9981 199.9981">
  <defs>
    <style>
      .cls-1{fill:#4c4494;}.cls-2{fill:url(#Unbenannter_Verlauf_37);}.cls-3{fill:url(#Unbenannter_Verlauf_44);}.cls-4{fill:url(#Unbenannter_Verlauf_17);}.cls-5{fill:#ae72ad;}.cls-6{fill:url(#Unbenannter_Verlauf_38);}.cls-7{fill:#935a9f;}.cls-8{fill:#6ec1f4;}.cls-9{fill:url(#Unbenannter_Verlauf_17-2);}.cls-10{fill:url(#Unbenannter_Verlauf_17-3);}.cls-11{fill:url(#Unbenannter_Verlauf_52);}.cls-12{fill:url(#Unbenannter_Verlauf_17-4);}.cls-13{fill:url(#Unbenannter_Verlauf_17-5);}.cls-14{fill:url(#Unbenannter_Verlauf_91);}.cls-15{fill:url(#Unbenannter_Verlauf_93);}.cls-16{fill:url(#Unbenannter_Verlauf_94);}
    </style>
    <linearGradient id="Unbenannter_Verlauf_37" x1="-233.5378" y1="118.3091" x2="-150.4544" y2="118.3091"
                    gradientTransform="matrix(-1, 0, 0, 1, -88.9859, 0)" gradientUnits="userSpaceOnUse">
      <stop offset="0.0194" stop-color="#1f00aa"/>
      <stop offset="1" stop-color="#f455ff"/>
    </linearGradient>
    <linearGradient id="Unbenannter_Verlauf_44" x1="-174.6879" y1="136.8414" x2="-89.777" y2="136.8414"
                    gradientTransform="matrix(-1, 0, 0, 1, -88.9859, 0)" gradientUnits="userSpaceOnUse">
      <stop offset="0.0194" stop-color="#56aaff"/>
      <stop offset="1" stop-color="#2401ac"/>
    </linearGradient>
    <linearGradient id="Unbenannter_Verlauf_17" x1="-186.2343" y1="180.9546" x2="-186.0772" y2="181.6105"
                    gradientTransform="matrix(-1, 0, 0, 1, -88.9859, 0)" gradientUnits="userSpaceOnUse">
      <stop offset="0.0194" stop-color="#153eff"/>
      <stop offset="1" stop-color="#7feeff"/>
    </linearGradient>
    <linearGradient id="Unbenannter_Verlauf_38" x1="-212.9323" y1="126.0506" x2="-126.9945" y2="126.0506"
                    gradientTransform="matrix(-1, 0, 0, 1, -88.9859, 0)" gradientUnits="userSpaceOnUse">
      <stop offset="0.0194" stop-color="#2250ff"/>
      <stop offset="1" stop-color="#f455ff"/>
    </linearGradient>
    <linearGradient id="Unbenannter_Verlauf_17-2" x1="-252.8696" y1="48.5029" x2="-215.1007" y2="206.2098"
                    xlink:href="#Unbenannter_Verlauf_17"/>
    <linearGradient id="Unbenannter_Verlauf_17-3" x1="-256.187" y1="-35.2792" x2="-256.187" y2="141.4816"
                    xlink:href="#Unbenannter_Verlauf_17"/>
    <linearGradient id="Unbenannter_Verlauf_52" x1="-138.9574" y1="94.7395" x2="-171.525" y2="196.2737"
                    gradientTransform="matrix(-1, 0, 0, 1, -88.9859, 0)" gradientUnits="userSpaceOnUse">
      <stop offset="0.0194" stop-color="#d549f3"/>
      <stop offset="1" stop-color="#3b7eff"/>
    </linearGradient>
    <linearGradient id="Unbenannter_Verlauf_17-4" x1="-259.8685" y1="122.5698" x2="-142.4205" y2="122.5698"
                    xlink:href="#Unbenannter_Verlauf_17"/>
    <linearGradient id="Unbenannter_Verlauf_17-5" x1="-186.5534" y1="181.134" x2="-186.525" y2="181.2523"
                    xlink:href="#Unbenannter_Verlauf_17"/>
    <linearGradient id="Unbenannter_Verlauf_91" x1="96.2694" y1="101.9346" x2="103.9908" y2="101.0219"
                    gradientUnits="userSpaceOnUse">
      <stop offset="0" stop-color="#e5f"/>
      <stop offset="1" stop-color="#3e0bb6"/>
    </linearGradient>
    <linearGradient id="Unbenannter_Verlauf_93" x1="34.6152" y1="56.41" x2="94.679" y2="116.4738"
                    gradientUnits="userSpaceOnUse">
      <stop offset="0.2031" stop-color="#cf4bf3"/>
      <stop offset="0.8876" stop-color="#8228d2"/>
    </linearGradient>
    <linearGradient id="Unbenannter_Verlauf_94" x1="37.9837" y1="50.3015" x2="110.8942" y2="123.212"
                    gradientUnits="userSpaceOnUse">
      <stop offset="0" stop-color="#e5f"/>
      <stop offset="0.8827" stop-color="#3e0bb6"/>
    </linearGradient>
  </defs>
  <path class="cls-1" d="M61.4773,95.7017c.044-.4131.0879-.835.1406-1.2481H61.6S61.5476,94.8931,61.4773,95.7017Z"/>
  <path class="cls-2"
        d="M61.4685,103.1643c.9493,15.0745,7.48,59.5245,51.3851,61.511h.044q2.5052-.145,5.1684-.4571c.51-.0615,1.0284-.1319,1.5558-.2021.29-.0352.58-.0792.879-.1231.3164-.0439.6328-.0967.958-.1494.3341-.0528.6769-.1055,1.0285-.167.4834-.0792.9668-.167,1.4591-.255a72.8455,72.8455,0,0,0,11.2685-16.1644c14.9778-28.9536,9.0711-50.3831,2.0568-62.8119a.1415.1415,0,0,0-.0352-.0615,71.1853,71.1853,0,0,0-9.282-12.0332.9705.9705,0,0,0-.0967-.0967.6339.6339,0,0,0-.0878-.0791c-.0264-.0264-.0528-.044-.07-.0616l-.0527-.0527a.0086.0086,0,0,0-.0088-.0088l-.0088-.0088-.0088.0088a38.8551,38.8551,0,1,1-66.152,31.2126Z"/>
  <path class="cls-3"
        d="M29.8867,169.6591a99.2524,99.2524,0,0,0,23.5391,17.4565h.0088c.0616.0088.4483.0616,1.1163.1231.1407.0176.2813.0263.44.0439s.3252.0264.501.044c.1758.0088.36.0264.5626.044.1934.0087.4043.0263.6241.0439.3252.0175.6768.0351,1.0547.0615.4923.0264,1.0285.0528,1.591.07H59.35a100.3224,100.3224,0,0,0,11.8046-.2988c.1407-.0088.2725-.0176.4132-.0352.4746-.0439.9581-.0879,1.45-.1406.5361-.0528,1.0724-.1143,1.6261-.1758.4571-.0528.9141-.1143,1.3712-.1758.7559-.0967,1.5119-.211,2.2854-.3252q1.16-.1846,2.3468-.3955a1.6244,1.6244,0,0,1,.2022-.0352c.9933-.1846,1.9953-.3868,3.0149-.6065.6065-.1319,1.2218-.2725,1.8371-.4219h-.0264c-33.1287-12.6925-49.9964-32.1267-58.5488-49.425-.923-1.8459-1.74-3.6742-2.47-5.4673a80.4453,80.4453,0,0,1-6.2408-30.2457,9.9279,9.9279,0,0,1,.07-1.9777c.0088-.0791.0263-.1582.0351-.2373.211-1.3361.9054-7.9636-5.08-10.7675A9.05,9.05,0,0,0,8.15,86.2439c-.0527.0176-.0967.0176-.1406.0352a9.0271,9.0271,0,0,0-7.0671,7.48c-.0263.6241-.0615,1.2394-.079,1.8722A99.0434,99.0434,0,0,0,29.8867,169.6591Z"/>
  <path class="cls-4"
        d="M96.6629,181.5517c.2724-.0967.5361-.2022.8086-.3077a1.366,1.366,0,0,1,.167-.07c-.0615.0264-.1231.044-.1758.0615C97.199,181.35,96.9353,181.455,96.6629,181.5517Z"/>
  <path class="cls-5" d="M127.7,72.0132a68.3145,68.3145,0,0,1,9.5369,12.2706A48.8609,48.8609,0,0,0,127.7,72.0132Z"/>
  <path class="cls-6"
        d="M38.0086,98.8748c.36,20.2342,5.9594,35.7218,13.8966,47.5353l.0088.0088c26.8352,33.3924,59.6036,27.1868,60.2365,27.0637h.0088c.2549-.167.501-.334.7383-.5185.4483-.3077.8966-.6329,1.3449-.9669.4394-.3165.8789-.65,1.31-.9845.1406-.1055.2813-.2109.4131-.3252.3692-.2813.73-.5713,1.09-.87.0615-.0439.123-.0967.1758-.1406.4043-.3428.8087-.6768,1.2129-1.0284.8966-.7736,1.7756-1.5734,2.6458-2.4172.4922-.4659.9669-.9406,1.4415-1.424s.9493-.9844,1.4152-1.4855c-.4923.088-.9757.1758-1.4591.255-.3516.0615-.6944.1142-1.0285.167-.3252.0527-.6416.1055-.958.1494-.2989.0439-.5889.0879-.879.1231-.5274.07-1.046.1406-1.5558.2021q-2.6633.3165-5.1684.4571h-.044c-43.905-1.9865-50.4358-46.4365-51.3851-61.511a.5009.5009,0,0,1-.0088-.1143c-.0352-.36-.0615-.73-.0791-1.09-.0176-.211-.0263-.4219-.0351-.6417-.0528-.9141-.0616-1.8195-.0352-2.7336v-.3692c.0088-.1846.0176-.36.0264-.5362.0263-.5889.07-1.169.123-1.7491a2.1631,2.1631,0,0,0,.0176-.2286c.07-.8086.123-1.2481.123-1.2481s1.3361-6.689-1.7491-11.541c-.1494-.22-.29-.4483-.4571-.6592-.0263-.0352-.0439-.0616-.07-.0967a12.7535,12.7535,0,0,0-.923-1.0372A11.491,11.491,0,0,0,51.29,78.087h-.0088a10.41,10.41,0,0,0-7.8668,3.6741A23.5245,23.5245,0,0,0,38.87,90.8585h-.0088a37.64,37.64,0,0,0-.6065,4.9575c-.1494,1.6525-.2373,3.0588-.2373,3.0588Z"/>
  <path class="cls-7" d="M61.31,99.03c.0029-.2715-.0085-.5436,0-.8146C61.31,98.2156,61.3052,98.5055,61.31,99.03Z"/>
  <path class="cls-8"
        d="M96.6629,181.5517c.2724-.0967.5361-.2022.8086-.3077a1.366,1.366,0,0,1,.167-.07c-.0615.0264-.1231.044-.1758.0615C97.199,181.35,96.9353,181.455,96.6629,181.5517Z"/>
  <path class="cls-9"
        d="M94.2457,198.5776a99.4736,99.4736,0,0,0,42.4107-6.7594C197.71,148.1329,176.4391,89.0566,170.4005,75.3973q-.3429-.7515-.6065-1.3184c-.1319-.2813-.2462-.5275-.3516-.7384-.2637-.5538-.4219-.8438-.4219-.8438-9.6952-19.3727-23.1787-27.7319-24.8927-28.7251a3.32,3.32,0,0,1,.6328.4923,3.7212,3.7212,0,0,1-1.881,6.2934.0793.0793,0,0,1-.044.0088,3.69,3.69,0,0,1-1.6964-.0615l-.3164-.0967s50.77,38.1477,20.3484,103.913a.263.263,0,0,0-.0352.07C150.5092,174.7924,130.7849,195.211,94.2457,198.5776Z"/>
  <path class="cls-10"
        d="M136.6564,191.8182q4.0214-1.5954,7.9284-3.5423a98.6526,98.6526,0,0,0,22.5986-15.5668l.0176-.0175c1.16-1.0548,2.3029-2.1535,3.4192-3.2786a97.7307,97.7307,0,0,0,25.8772-46.5508,100.8467,100.8467,0,0,0-26.888-94.464l-8.9568-8.9655a14.9263,14.9263,0,0,0-25.3586,8.4821c-1.0284,11.0752,8.658,15.7426,8.658,15.7426a.7958.7958,0,0,1,.1054.07c.0176.0088.044.0264.07.0439,1.714.9932,15.1975,9.3524,24.8927,28.7251,0,0,.1582.29.4219.8438.1054.2109.22.4571.3516.7384q.2635.5668.6065,1.3184C176.4391,89.0566,197.71,148.1329,136.6564,191.8182Z"/>
  <path class="cls-11"
        d="M18.4161,99.7978a80.4453,80.4453,0,0,0,6.2408,30.2457c.7295,1.7931,1.5469,3.6214,2.47,5.4673,8.5524,17.2983,25.42,36.7325,58.5488,49.425h.0264c.0088,0,.0263-.0088.0351-.0088q2.4523-.58,4.9838-1.3448c.5626-.167,1.1252-.3429,1.6965-.5275.5449-.1758,1.0987-.36,1.6437-.5449.8614-.3076,1.7316-.6241,2.6018-.9581.2724-.0967.5361-.2022.8-.3165.0527-.0175.1143-.0351.1758-.0615s.1231-.0439.1758-.07c.4922-.1934.9757-.3955,1.4679-.6065.5274-.22,1.0548-.4571,1.5734-.6856q2.7028-1.2129,5.3794-2.69c.2988-.167.5977-.3252.8965-.501q.6725-.3824,1.3448-.791c.36-.2022.712-.422,1.0724-.65.167-.0967.334-.2022.501-.3077.29-.1846.5714-.3691.8614-.5537.2637-.167.5186-.3428.7823-.5186.15-.1055.3077-.2022.4571-.3165-.6329.1231-33.4013,6.3287-60.2365-27.0637l-.0088-.0088C43.968,134.5966,38.3689,119.109,38.0086,98.8748a9.7963,9.7963,0,0,1-15.5932,8.1746,9.2724,9.2724,0,0,1-1.1514-.9757A9.7692,9.7692,0,0,1,18.4161,99.7978Z"/>
  <path class="cls-12"
        d="M53.4346,187.1156l.0176.0176a99.2288,99.2288,0,0,0,40.7847,11.4444h.0088c36.5392-3.3666,56.2635-23.7852,66.89-44.1864a.263.263,0,0,1,.0352-.07c30.4215-65.7653-20.3484-103.913-20.3484-103.913l-1.5206-1.0548a12.3272,12.3272,0,0,0-10.17-2.5666,1.2488,1.2488,0,0,1-.1934.044,12.39,12.39,0,0,0-7.3746,4.7289,11.8852,11.8852,0,0,0-1.8547,3.6389A12.0815,12.0815,0,0,0,122.9,67.214l4.7289,4.7289.0088.0088a.0086.0086,0,0,1,.0088.0088.2917.2917,0,0,1,.0527.0527c.0176.0176.044.0352.07.0616a.6339.6339,0,0,1,.0878.0791.9705.9705,0,0,1,.0967.0967,1.5292,1.5292,0,0,0,.1231.1054c.0791.0792.1758.1758.29.2725.2636.255.5977.5889.9932.9845.6241.6417,1.38,1.4679,2.2238,2.4787.1846.22.3692.4483.5714.6856l.079.1055c.3341.4131.6769.8614,1.0285,1.3273q.1977.2505.3955.5273c.211.29.4219.5977.6417.9054.2461.3428.4922.7032.7383,1.0723.1934.2989.3955.5977.5889.9054q.4748.7251.9493,1.5294.33.5538.6592,1.1339a.1415.1415,0,0,1,.0352.0615c7.0143,12.4288,12.921,33.8583-2.0568,62.8119a72.8455,72.8455,0,0,1-11.2685,16.1644c-.4659.5011-.9405,1.0021-1.4152,1.4855s-.9493.9581-1.4415,1.424c-.87.8438-1.7492,1.6436-2.6458,2.4172-.4042.3516-.8086.6856-1.2129,1.0284-.0528.0439-.1143.0967-.1758.1406-.36.2989-.7208.5889-1.09.87-.1318.1143-.2725.22-.4131.3252-.4307.334-.87.668-1.31.9845-.4483.3428-.8966.6592-1.3449.9669-.2373.1845-.4834.3515-.7383.5185h-.0088c-.1494.1143-.3076.211-.4571.3165-.2637.1758-.5186.3516-.7823.5186-.29.1846-.5713.3691-.8614.5537-.167.1055-.334.211-.501.3077-.36.2285-.712.4483-1.0724.65q-.6723.4086-1.3448.791c-.2988.1758-.5977.334-.8965.501q-2.6766,1.4767-5.3794,2.69c-.5186.2285-1.046.4659-1.5734.6856-.4922.211-.9757.4131-1.4679.6065-.0527.0264-.1143.044-.1758.07a1.366,1.366,0,0,0-.167.07c-.2725.1055-.5362.211-.8086.3077-.87.334-1.74.65-2.6018.9581-.545.1846-1.0988.3691-1.6437.5449-.5713.1846-1.1339.3605-1.6965.5275q-2.5314.7646-4.9838,1.3448c-.0088,0-.0263.0088-.0351.0088-.6153.1494-1.2306.29-1.8371.4219-1.02.22-2.0216.4219-3.0149.6065a1.6244,1.6244,0,0,0-.2022.0352c-.791.1406-1.5733.2812-2.3468.3955-.7735.123-1.5295.2285-2.2854.3252-.4659.07-.9229.123-1.3712.1758-.5537.0615-1.09.123-1.6261.1758-.4922.0527-.9757.1055-1.45.1406-.1407.0176-.2725.0264-.4132.0352a100.3224,100.3224,0,0,1-11.8046.2988h-.0264c-.5625-.0175-1.0987-.0439-1.591-.07-.3691-.0176-.7207-.0352-1.0547-.0615-.22-.0088-.422-.0264-.6241-.0439s-.3868-.0264-.5626-.044-.3427-.0264-.501-.044-.2988-.0263-.44-.0439C53.8829,187.1772,53.4962,187.1244,53.4346,187.1156Z"/>
  <path class="cls-13"
        d="M97.4627,181.2352l.0088.0088a1.366,1.366,0,0,1,.167-.07C97.577,181.2,97.5154,181.2177,97.4627,181.2352Z"/>
  <path class="cls-14"
        d="M100.9907,105.26a1.77,1.77,0,0,1-.3988.08,3.89,3.89,0,1,1,3.3982-4.3236A3.8618,3.8618,0,0,1,100.9907,105.26Z"/>
  <path class="cls-15"
        d="M92.12,102.42a35.1233,35.1233,0,0,0,4.4352,11.487,17.2529,17.2529,0,0,0,2.2336,2.9994c.1117.1117.2234.2234.335.3191a3.9113,3.9113,0,0,1-2.0581,6.43,1.7686,1.7686,0,0,1-.3988.08,4.8416,4.8416,0,0,1-.83.0158c-.0158,0-.0318-.0158-.0478,0-.2553-.0637-.51-.1115-.7657-.1595A23.92,23.92,0,0,1,83.01,117.0655a23.1811,23.1811,0,0,1-2.9037-3.5258h-.016l-.0318-.0319a24.3512,24.3512,0,0,1-3.6057-8.5994h-.0479s-1.8985-17.757-3.9406-21.9848a.0157.0157,0,0,1-.016-.016C70.04,76.3664,64.7267,70.926,58.17,69.49c-22.24-4.8661-27.856,23.676-28.0634,24.8087a.0788.0788,0,0,0-.016.0479,2.3543,2.3543,0,0,1-.702,1.5,2.455,2.455,0,0,1-2.8717.4467v-.0159s2.3772-45.0707,38.7687-46.0279c19.8789-.5265,33.6474,23.9472,35.9448,43.2359a7.9306,7.9306,0,0,0-2.0421-.016A8.0794,8.0794,0,0,0,92.12,102.42Z"/>
  <path class="cls-16"
        d="M123.0713,93.0545v-.0478c-5.2968-21.4107-22.9262-42.5658-40.5875-50.24-20.9319-9.078-39.7419,3.0791-45.1185,8.1685-14.8374,14.04-12.3325,41.6085-12.1571,43.3795v.0319c0,.0319.016.0479.016.0638a2.4739,2.4739,0,0,0,.686,1.4359,2.629,2.629,0,0,0,.6063.4308s2.3772-45.0707,38.7687-46.0279c19.8789-.5265,33.6474,23.9472,35.9448,43.2359a8.0447,8.0447,0,0,1,6.9082,7.0357c.3828,3.3185-.702,11.535-3.1271,15.6671v.0159q-.2152.3591-.4307.67c-.016.016-.016.0319-.0319.0479a4.1216,4.1216,0,0,0,.761,4.6011c1.5569,1.3669,3.664.7987,4.6753.4016.1856-.0878.38-.1546.5625-.2484.0159.016.0319-.016.0319-.016a23.3953,23.3953,0,0,0,6.4774-4.6106A24.0277,24.0277,0,0,0,123.0713,93.0545Z"/>
</svg>
