<svg id="Ebene_1" data-name="Ebene 1" xmlns="http://www.w3.org/2000/svg" xmlns:xlink="http://www.w3.org/1999/xlink"
     viewBox="0 0 262.2838 54.0248">
  <defs>
    <style>
      .cls-1{fill:url(#Unbenannter_Verlauf_44);}.cls-2{fill:url(#Unbenannter_Verlauf_88);}.cls-3{fill:url(#Unbenannter_Verlauf_88-2);}.cls-4{fill:url(#Unbenannter_Verlauf_17);}.cls-5{fill:url(#Unbenannter_Verlauf_17-2);}.cls-6{fill:url(#Unbenannter_Verlauf_17-3);}.cls-7{fill:#4c4494;}.cls-8{fill:url(#Unbenannter_Verlauf_37);}.cls-9{fill:url(#Unbenannter_Verlauf_44-2);}.cls-10{fill:url(#Unbenannter_Verlauf_17-4);}.cls-11{fill:#ae72ad;}.cls-12{fill:url(#Unbenannter_Verlauf_38);}.cls-13{fill:#935a9f;}.cls-14{fill:#6ec1f4;}.cls-15{fill:url(#Unbenannter_Verlauf_17-5);}.cls-16{fill:url(#Unbenannter_Verlauf_17-6);}.cls-17{fill:url(#Unbenannter_Verlauf_52);}.cls-18{fill:url(#Unbenannter_Verlauf_17-7);}.cls-19{fill:url(#Unbenannter_Verlauf_17-8);}.cls-20{fill:url(#Unbenannter_Verlauf_91);}.cls-21{fill:url(#Unbenannter_Verlauf_93);}.cls-22{fill:url(#Unbenannter_Verlauf_94);}
    </style>
    <linearGradient id="Unbenannter_Verlauf_44" x1="2.801" y1="15.6906" x2="0.8549" y2="17.9823"
                    gradientUnits="userSpaceOnUse">
      <stop offset="0.0194" stop-color="#56aaff"/>
      <stop offset="1" stop-color="#2401ac"/>
    </linearGradient>
    <linearGradient id="Unbenannter_Verlauf_88" x1="4.3064" y1="16.9671" x2="3.6577" y2="17.731"
                    gradientUnits="userSpaceOnUse">
      <stop offset="0" stop-color="#cf4bf3"/>
      <stop offset="1" stop-color="#8228d2"/>
    </linearGradient>
    <linearGradient id="Unbenannter_Verlauf_88-2" x1="4.7281" y1="14.8336" x2="3.984" y2="15.7099"
                    xlink:href="#Unbenannter_Verlauf_88"/>
    <linearGradient id="Unbenannter_Verlauf_17" x1="34.4434" y1="6.542" x2="33.0668" y2="8.1629"
                    gradientUnits="userSpaceOnUse">
      <stop offset="0.0194" stop-color="#153eff"/>
      <stop offset="1" stop-color="#7feeff"/>
    </linearGradient>
    <linearGradient id="Unbenannter_Verlauf_17-2" x1="36.4212" y1="1.6502" x2="34.3627" y2="4.0742"
                    xlink:href="#Unbenannter_Verlauf_17"/>
    <linearGradient id="Unbenannter_Verlauf_17-3" x1="33.0712" y1="3.6969" x2="32.3635" y2="4.5302"
                    xlink:href="#Unbenannter_Verlauf_17"/>
    <linearGradient id="Unbenannter_Verlauf_37" x1="498.0205" y1="28.577" x2="521.0156" y2="28.577"
                    gradientTransform="matrix(-1, 0, 0, 1, 537.7895, 0)" gradientUnits="userSpaceOnUse">
      <stop offset="0.0194" stop-color="#1f00aa"/>
      <stop offset="1" stop-color="#f455ff"/>
    </linearGradient>
    <linearGradient id="Unbenannter_Verlauf_44-2" x1="514.3085" y1="33.7062" x2="537.8093" y2="33.7062"
                    gradientTransform="matrix(-1, 0, 0, 1, 537.7895, 0)" xlink:href="#Unbenannter_Verlauf_44"/>
    <linearGradient id="Unbenannter_Verlauf_17-4" x1="511.1128" y1="45.9155" x2="511.1562" y2="46.097"
                    gradientTransform="matrix(-1, 0, 0, 1, 537.7895, 0)" xlink:href="#Unbenannter_Verlauf_17"/>
    <linearGradient id="Unbenannter_Verlauf_38" x1="503.7236" y1="30.7196" x2="527.5086" y2="30.7196"
                    gradientTransform="matrix(-1, 0, 0, 1, 537.7895, 0)" gradientUnits="userSpaceOnUse">
      <stop offset="0.0194" stop-color="#2250ff"/>
      <stop offset="1" stop-color="#f455ff"/>
    </linearGradient>
    <linearGradient id="Unbenannter_Verlauf_17-5" x1="492.6701" y1="9.2567" x2="503.1234" y2="52.9054"
                    gradientTransform="matrix(-1, 0, 0, 1, 537.7895, 0)" xlink:href="#Unbenannter_Verlauf_17"/>
    <linearGradient id="Unbenannter_Verlauf_17-6" x1="491.7519" y1="-13.9317" x2="491.7519" y2="34.9905"
                    gradientTransform="matrix(-1, 0, 0, 1, 537.7895, 0)" xlink:href="#Unbenannter_Verlauf_17"/>
    <linearGradient id="Unbenannter_Verlauf_52" x1="524.1976" y1="22.0536" x2="515.1839" y2="50.1553"
                    gradientTransform="matrix(-1, 0, 0, 1, 537.7895, 0)" gradientUnits="userSpaceOnUse">
      <stop offset="0.0194" stop-color="#d549f3"/>
      <stop offset="1" stop-color="#3b7eff"/>
    </linearGradient>
    <linearGradient id="Unbenannter_Verlauf_17-7" x1="490.733" y1="29.7563" x2="523.2391" y2="29.7563"
                    gradientTransform="matrix(-1, 0, 0, 1, 537.7895, 0)" xlink:href="#Unbenannter_Verlauf_17"/>
    <linearGradient id="Unbenannter_Verlauf_17-8" x1="511.0245" y1="45.9651" x2="511.0323" y2="45.9979"
                    gradientTransform="matrix(-1, 0, 0, 1, 537.7895, 0)" xlink:href="#Unbenannter_Verlauf_17"/>
    <linearGradient id="Unbenannter_Verlauf_91" x1="26.4057" y1="24.0451" x2="28.5428" y2="23.7924"
                    gradientUnits="userSpaceOnUse">
      <stop offset="0" stop-color="#e5f"/>
      <stop offset="1" stop-color="#3e0bb6"/>
    </linearGradient>
    <linearGradient id="Unbenannter_Verlauf_93" x1="9.3416" y1="11.4452" x2="25.9656" y2="28.0691"
                    gradientUnits="userSpaceOnUse">
      <stop offset="0.2031" stop-color="#cf4bf3"/>
      <stop offset="0.8876" stop-color="#8228d2"/>
    </linearGradient>
    <linearGradient id="Unbenannter_Verlauf_94" x1="10.274" y1="9.7545" x2="30.4535" y2="29.934"
                    gradientUnits="userSpaceOnUse">
      <stop offset="0" stop-color="#e5f"/>
      <stop offset="0.8827" stop-color="#3e0bb6"/>
    </linearGradient>
  </defs>
  <path
    d="M66.6936,17.9a14.4722,14.4722,0,0,1,5.6456-5.71,16.3833,16.3833,0,0,1,8.203-2.0452,15.7074,15.7074,0,0,1,9.6226,2.9672,14.2528,14.2528,0,0,1,5.3491,8.0933H87.0621a6.8357,6.8357,0,0,0-2.6745-3.013,7.5252,7.5252,0,0,0-3.9332-1.0336,7.3383,7.3383,0,0,0-5.7553,2.4733A9.555,9.555,0,0,0,72.4965,26.24a9.5567,9.5567,0,0,0,2.2026,6.61,7.3383,7.3383,0,0,0,5.7553,2.4733,7.5264,7.5264,0,0,0,3.9332-1.0354,6.8212,6.8212,0,0,0,2.6745-3.0112h8.4518a14.1469,14.1469,0,0,1-5.3491,8.0695,15.7882,15.7882,0,0,1-9.6226,2.9453,16.3833,16.3833,0,0,1-8.203-2.0453,14.5115,14.5115,0,0,1-5.6456-5.6876,16.8627,16.8627,0,0,1-2.02-8.3182A16.9925,16.9925,0,0,1,66.6936,17.9Z"/>
  <path
    d="M122.578,19.5645a11.1969,11.1969,0,0,1,2.6087,7.8445V42.0661h-7.6432V28.4426a5.5009,5.5009,0,0,0-1.3062-3.9113,5.1134,5.1134,0,0,0-7.0139,0,5.5163,5.5163,0,0,0-1.3025,3.9113V42.0661h-7.6871V8.7967h7.6871V20.3512a8.21,8.21,0,0,1,3.1941-2.6527,10.2035,10.2035,0,0,1,4.5406-.99A8.921,8.921,0,0,1,122.578,19.5645Z"/>
  <path
    d="M135.3252,40.8514a11.5039,11.5039,0,0,1-4.632-4.4949,13.4428,13.4428,0,0,1-1.6867-6.8346,13.3343,13.3343,0,0,1,1.7087-6.8108,11.5868,11.5868,0,0,1,4.6759-4.5186,14.8555,14.8555,0,0,1,13.307,0,11.587,11.587,0,0,1,4.676,4.5186,13.3353,13.3353,0,0,1,1.7086,6.8108,13.204,13.204,0,0,1-1.7306,6.8127,11.7041,11.7041,0,0,1-4.72,4.5168,14.1056,14.1056,0,0,1-6.6773,1.5751A13.8224,13.8224,0,0,1,135.3252,40.8514Zm.472-27.7849a3.171,3.171,0,0,1-.9439-2.3361,3.256,3.256,0,0,1,.9439-2.3618,3.1386,3.1386,0,0,1,2.338-.9659A3.2282,3.2282,0,0,1,141.461,10.73a3.134,3.134,0,0,1-.9659,2.3361,3.255,3.255,0,0,1-2.36.9458A3.17,3.17,0,0,1,135.7972,13.0665Zm9.9117,21.0874a6.4268,6.4268,0,0,0,1.5513-4.632,6.5418,6.5418,0,0,0-1.5074-4.63,5.1049,5.1049,0,0,0-7.4383-.0219,6.5821,6.5821,0,0,0-1.4855,4.6521,6.6691,6.6691,0,0,0,1.4635,4.632,4.73,4.73,0,0,0,3.6625,1.6172A5.0164,5.0164,0,0,0,145.7089,34.1539Zm-.922-21.0874a3.1711,3.1711,0,0,1-.944-2.3361,3.2561,3.2561,0,0,1,.944-2.3618,3.1384,3.1384,0,0,1,2.3379-.9659,3.2283,3.2283,0,0,1,3.3259,3.3277,3.1344,3.1344,0,0,1-.9659,2.3361,3.2434,3.2434,0,0,1-2.36.9458A3.17,3.17,0,0,1,144.7869,13.0665Z"/>
  <path
    d="M169.963,17.6985a9.522,9.522,0,0,1,4.632-1.0793,10.3984,10.3984,0,0,1,5.62,1.5733,10.9164,10.9164,0,0,1,3.9771,4.4966,15.0062,15.0062,0,0,1,1.46,6.7889,15.1456,15.1456,0,0,1-1.46,6.8109,11.0329,11.0329,0,0,1-3.9771,4.5405,10.2786,10.2786,0,0,1-5.62,1.5971,9.5635,9.5635,0,0,1-4.61-1.0794,8.46,8.46,0,0,1-3.1246-2.788V54.0248h-7.6872V16.98H166.86V20.53A8.3333,8.3333,0,0,1,169.963,17.6985Zm6.2712,7.2609a5.2708,5.2708,0,0,0-3.9332-1.641,5.1867,5.1867,0,0,0-3.8893,1.663,6.2826,6.2826,0,0,0-1.5952,4.54,6.2768,6.2768,0,0,0,1.5952,4.5406,5.3769,5.3769,0,0,0,7.8005-.022,6.31,6.31,0,0,0,1.6172-4.5625A6.2018,6.2018,0,0,0,176.2342,24.9594Z"/>
  <path
    d="M202.2848,23.3623H198.15V42.0661h-7.6871V23.3623h-2.788V16.98h2.788v-.7208q0-4.6293,2.6526-7.0359,2.6508-2.4037,7.7786-2.4056c.5672,0,.9879.0165,1.2587.0457v6.52a4.398,4.398,0,0,0-3.1027.6293,3.4586,3.4586,0,0,0-.9,2.7423v.225h4.1345Z"/>
  <path d="M213.5685,8.7967V42.0661h-7.6871V8.7967Z"/>
  <path
    d="M242.6559,31.3659H225.2583a5.23,5.23,0,0,0,1.5074,3.5747,4.591,4.591,0,0,0,3.26,1.2367,4.0394,4.0394,0,0,0,3.9991-2.43H242.21a11.2251,11.2251,0,0,1-2.2721,4.4509,11.3449,11.3449,0,0,1-4.1125,3.1027,13.219,13.219,0,0,1-5.5321,1.1251,13.44,13.44,0,0,1-6.5638-1.5751,11.1946,11.1946,0,0,1-4.4967-4.4949,13.9162,13.9162,0,0,1-1.6172-6.8346,14.0286,14.0286,0,0,1,1.5952-6.8328,11.0685,11.0685,0,0,1,4.4747-4.4966,14.57,14.57,0,0,1,13.0839-.0439,10.9764,10.9764,0,0,1,4.4271,4.3594,13.2375,13.2375,0,0,1,1.5953,6.61A19.3094,19.3094,0,0,1,242.6559,31.3659Zm-7.731-4.2716a3.95,3.95,0,0,0-1.35-3.1466,4.9585,4.9585,0,0,0-3.37-1.1689,4.8665,4.8665,0,0,0-3.26,1.1232,5.0049,5.0049,0,0,0-1.6428,3.1923Z"/>
  <path
    d="M257.8984,17.9a8.69,8.69,0,0,1,4.4967-1.191V24.846H260.28a6.4873,6.4873,0,0,0-4.3174,1.2367Q254.525,27.32,254.525,30.422V42.0661h-7.6871V16.98h7.6871v4.18A10.17,10.17,0,0,1,257.8984,17.9Z"/>
  <circle class="cls-1" cx="1.6397" cy="17.0582" r="1.0943"/>
  <circle class="cls-2" cx="3.9193" cy="17.4229" r="0.3648"/>
  <circle class="cls-3" cx="4.2841" cy="15.3565" r="0.4184"/>
  <circle class="cls-4" cx="33.6219" cy="7.5093" r="0.774"/>
  <circle class="cls-5" cx="35.1928" cy="3.0967" r="1.1575"/>
  <circle class="cls-6" cx="32.6489" cy="4.1941" r="0.3979"/>
  <path class="cls-7" d="M16.7763,22.32c.0122-.1144.0243-.2311.0389-.3455H16.81S16.7958,22.0962,16.7763,22.32Z"/>
  <path class="cls-8"
        d="M16.7739,24.3854c.2627,4.1722,2.07,16.4746,14.2219,17.0244h.0121q.6934-.04,1.4305-.1265c.1411-.017.2846-.0365.4306-.0559.08-.01.1606-.0219.2433-.0341.0875-.0121.1751-.0267.2651-.0413.0925-.0146.1874-.0292.2847-.0463.1338-.0219.2676-.0462.4038-.07a20.1625,20.1625,0,0,0,3.1188-4.4738c4.1454-8.0136,2.5106-13.9446.5693-17.3845a.04.04,0,0,0-.01-.0171,19.6908,19.6908,0,0,0-2.569-3.33.2688.2688,0,0,0-.0267-.0268.18.18,0,0,0-.0243-.0219l-.02-.017-.0146-.0146-.0024-.0024-.0025-.0025-.0024.0025a10.7539,10.7539,0,1,1-18.3089,8.6387Z"/>
  <path class="cls-9"
        d="M8.033,42.7892a27.4662,27.4662,0,0,0,6.5149,4.8315H14.55c.0171.0024.1241.017.309.034.0389.0049.0778.0073.1216.0122s.09.0073.1387.0122c.0486.0024.1.0073.1557.0121.0535.0024.1119.0073.1727.0122.09.0048.1873.01.2919.017.1363.0073.2847.0146.44.02h.0073a27.7806,27.7806,0,0,0,3.2672-.0827c.0389-.0025.0754-.0049.1143-.01.1314-.0121.2652-.0243.4014-.0389.1484-.0146.2968-.0316.45-.0487.1265-.0145.253-.0316.38-.0486.2092-.0268.4184-.0584.6325-.09q.3211-.0512.6495-.1095a.4375.4375,0,0,1,.056-.01c.2749-.0511.5522-.1071.8344-.1679.1679-.0365.3382-.0754.5085-.1168h-.0073C14.3046,43.5044,9.6362,38.1256,7.2691,33.338c-.2555-.5109-.4817-1.017-.6836-1.5132a22.2669,22.2669,0,0,1-1.7273-8.3711,2.7483,2.7483,0,0,1,.0195-.5474c.0024-.0219.0073-.0438.01-.0657a2.7519,2.7519,0,0,0-1.4061-2.98,2.5054,2.5054,0,0,0-1.4645-.1582c-.0146.0049-.0268.0049-.039.01a2.4985,2.4985,0,0,0-1.9559,2.07c-.0073.1728-.017.3431-.0219.5182A27.4123,27.4123,0,0,0,8.033,42.7892Z"/>
  <path class="cls-10"
        d="M26.5146,46.0807c.0754-.0267.1484-.0559.2238-.0851a.3807.3807,0,0,1,.0463-.02c-.0171.0073-.0341.0122-.0487.0171C26.663,46.0248,26.59,46.054,26.5146,46.0807Z"/>
  <path class="cls-11" d="M35.1047,15.7637A18.9041,18.9041,0,0,1,37.7442,19.16,13.5246,13.5246,0,0,0,35.1047,15.7637Z"/>
  <path class="cls-12"
        d="M10.2808,23.1982A23.8023,23.8023,0,0,0,14.127,36.3546l.0025.0024c7.4272,9.242,16.4965,7.5245,16.6717,7.49h.0024c.07-.0463.1387-.0925.2043-.1436.1241-.0851.2482-.1751.3722-.2676.1217-.0876.2433-.18.3625-.2724.0389-.0292.0779-.0584.1144-.09.1021-.0778.2019-.1581.3016-.2408.0171-.0122.0341-.0268.0487-.0389.1119-.0949.2238-.1873.3357-.2847.2481-.214.4914-.4354.7323-.669.1362-.1289.2676-.26.3989-.3941s.2628-.2724.3917-.4111c-.1362.0243-.27.0486-.4038.07-.0973.0171-.1922.0317-.2847.0463-.09.0146-.1776.0292-.2651.0413-.0827.0122-.163.0243-.2433.0341-.146.0194-.2895.0389-.4306.0559q-.7371.0876-1.4305.1265h-.0121c-12.1517-.55-13.9592-12.8522-14.2219-17.0244a.1349.1349,0,0,1-.0025-.0316c-.01-.1-.017-.2019-.0219-.3017-.0048-.0584-.0073-.1168-.01-.1776-.0146-.253-.017-.5036-.01-.7566v-.1022l.0073-.1484c.0073-.1629.0194-.3235.034-.4841a.5824.5824,0,0,0,.0049-.0632c.02-.2238.0341-.3455.0341-.3455a4.9437,4.9437,0,0,0-.4842-3.1942c-.0413-.0608-.08-.1241-.1265-.1824l-.0194-.0268a3.5637,3.5637,0,0,0-.2555-.2871,3.1809,3.1809,0,0,0-1.9681-.8393h-.0024a2.8815,2.8815,0,0,0-2.1773,1.0169A6.5117,6.5117,0,0,0,10.5192,20.98h-.0024a10.43,10.43,0,0,0-.1679,1.3721c-.0413.4574-.0656.8466-.0656.8466Z"/>
  <path class="cls-13" d="M16.73,23.2412c.0008-.0751-.0024-.15,0-.2255C16.73,23.0157,16.7287,23.096,16.73,23.2412Z"/>
  <path class="cls-14"
        d="M26.5146,46.0807c.0754-.0267.1484-.0559.2238-.0851a.3807.3807,0,0,1,.0463-.02c-.0171.0073-.0341.0122-.0487.0171C26.663,46.0248,26.59,46.054,26.5146,46.0807Z"/>
  <path class="cls-15"
        d="M25.8456,50.793a27.5316,27.5316,0,0,0,11.7381-1.8708C54.4816,36.8314,48.5944,20.4808,46.923,16.7q-.0948-.2081-.1678-.3649c-.0365-.0779-.0681-.146-.0973-.2044-.073-.1532-.1168-.2335-.1168-.2335a19.4511,19.4511,0,0,0-6.89-7.95.9207.9207,0,0,1,.1752.1363,1.03,1.03,0,0,1-.5206,1.7418l-.0122.0025a1.021,1.021,0,0,1-.47-.0171l-.0876-.0267s14.0516,10.5581,5.6319,28.76a.0728.0728,0,0,0-.01.02C41.4177,44.21,35.9586,49.8612,25.8456,50.793Z"/>
  <path class="cls-16"
        d="M37.5837,48.9222q1.113-.4416,2.1943-.98a27.3031,27.3031,0,0,0,6.2546-4.3084l.0049-.0049c.3211-.2919.6374-.596.9464-.9074a27.049,27.049,0,0,0,7.162-12.8839A27.9112,27.9112,0,0,0,46.7041,3.6923l-2.479-2.4814a4.1312,4.1312,0,0,0-7.0185,2.3476,4.4949,4.4949,0,0,0,2.3963,4.3571.2291.2291,0,0,1,.0292.0195l.0194.0121a19.4511,19.4511,0,0,1,6.89,7.95s.0438.08.1168.2335c.0292.0584.0608.1265.0973.2044q.0729.1569.1678.3649C48.5944,20.4808,54.4816,36.8314,37.5837,48.9222Z"/>
  <path class="cls-17"
        d="M4.8582,23.4537a22.2669,22.2669,0,0,0,1.7273,8.3711c.2019.4962.4281,1.0023.6836,1.5132,2.3671,4.7876,7.0355,10.1664,16.2046,13.6793h.0073l.01-.0024q.6788-.16,1.3794-.3722c.1557-.0462.3114-.0949.47-.146.1508-.0486.3041-.1.4549-.1508.2385-.0851.4793-.1727.72-.2652.0754-.0267.1484-.0559.2214-.0875.0146-.0049.0316-.01.0487-.0171s.034-.0121.0486-.0194c.1363-.0536.27-.1095.4063-.1679.146-.0608.2919-.1265.4355-.19q.748-.3357,1.4888-.7444c.0827-.0462.1654-.09.2481-.1386q.1862-.1059.3723-.219c.1-.056.197-.1168.2968-.18.0462-.0268.0924-.056.1386-.0852.08-.0511.1582-.1021.2384-.1532.073-.0463.1436-.0949.2165-.1436.0414-.0291.0852-.0559.1266-.0875-.1752.034-9.2445,1.7515-16.6717-7.49l-.0025-.0024a23.8023,23.8023,0,0,1-3.8462-13.1564,2.7113,2.7113,0,0,1-4.3157,2.2625,2.567,2.567,0,0,1-.3187-.27A2.7038,2.7038,0,0,1,4.8582,23.4537Z"/>
  <path class="cls-18"
        d="M14.55,47.6207l.0049.0048a27.4622,27.4622,0,0,0,11.288,3.1675h.0024c10.113-.9318,15.5721-6.5831,18.5133-12.23a.0728.0728,0,0,1,.01-.02c8.42-18.2019-5.6319-28.76-5.6319-28.76l-.4209-.292a3.4118,3.4118,0,0,0-2.8147-.71.3358.3358,0,0,1-.0535.0121,3.43,3.43,0,0,0-2.0411,1.3089,3.291,3.291,0,0,0-.5133,1.0071,3.3439,3.3439,0,0,0,.8831,3.3256l1.3088,1.3088.0025.0025.0024.0024a.0811.0811,0,0,1,.0146.0146l.02.017a.18.18,0,0,1,.0243.0219.2688.2688,0,0,1,.0267.0268c.01.01.0219.0194.0341.0292.0219.0219.0487.0486.08.0754.073.0705.1654.163.2749.2725.1727.1776.3819.4062.6155.686.0511.0608.1021.1241.1581.19l.0219.0291c.0924.1144.1873.2385.2846.3674q.0548.0693.11.146c.0584.08.1168.1654.1776.25.0681.0949.1362.1947.2043.2968.0536.0827.1095.1655.1631.2506q.1313.2007.2627.4233.0912.1533.1824.3138a.04.04,0,0,1,.01.0171c1.9413,3.44,3.5761,9.3709-.5693,17.3845a20.1625,20.1625,0,0,1-3.1188,4.4738c-.1289.1387-.26.2773-.3917.4111s-.2627.2652-.3989.3941c-.2409.2336-.4842.455-.7323.669-.1119.0974-.2238.19-.3357.2847-.0146.0121-.0316.0267-.0487.0389-.1.0827-.2.163-.3016.2408-.0365.0317-.0755.0609-.1144.09-.1192.0924-.2408.1848-.3625.2724-.124.0949-.2481.1825-.3722.2676-.0656.0511-.1338.0973-.2043.1436h-.0024c-.0414.0316-.0852.0584-.1266.0875-.0729.0487-.1435.0973-.2165.1436-.08.0511-.1581.1021-.2384.1532-.0462.0292-.0924.0584-.1386.0852-.1.0632-.1971.124-.2968.18q-.1862.1131-.3723.219c-.0827.0486-.1654.0924-.2481.1386q-.7407.4088-1.4888.7444c-.1436.0633-.29.129-.4355.19-.1362.0584-.27.1143-.4063.1679-.0146.0073-.0316.0121-.0486.0194a.3807.3807,0,0,0-.0463.02c-.0754.0292-.1484.0584-.2238.0851-.2408.0925-.4816.18-.72.2652-.1508.0511-.3041.1022-.4549.1508-.1581.0511-.3138.1-.4695.146q-.7007.2116-1.3794.3722l-.01.0024c-.17.0414-.3406.08-.5085.1168-.2822.0608-.5595.1168-.8344.1679a.4375.4375,0,0,0-.056.01c-.2189.0389-.4354.0779-.6495.1095-.2141.034-.4233.0632-.6325.09-.129.02-.2555.0341-.38.0486-.1533.0171-.3017.0341-.45.0487-.1362.0146-.27.0292-.4014.0389-.0389.0049-.0754.0073-.1143.01a27.7806,27.7806,0,0,1-3.2672.0827H16.18c-.1557-.0049-.3041-.0122-.44-.02-.1021-.0049-.1994-.01-.2919-.017-.0608-.0024-.1168-.0073-.1727-.0122s-.1071-.0073-.1557-.0121-.0949-.0073-.1387-.0122-.0827-.0073-.1216-.0122C14.6744,47.6377,14.5674,47.6231,14.55,47.6207Z"/>
  <path class="cls-19"
        d="M26.736,45.9932l.0024.0024a.3807.3807,0,0,1,.0463-.02C26.7676,45.9834,26.7506,45.9883,26.736,45.9932Z"/>
  <path class="cls-20"
        d="M27.7125,24.9653a.498.498,0,0,1-.11.0221,1.0766,1.0766,0,1,1,.9405-1.1967A1.0689,1.0689,0,0,1,27.7125,24.9653Z"/>
  <path class="cls-21"
        d="M25.2574,24.1793a9.7191,9.7191,0,0,0,1.2275,3.1793,4.774,4.774,0,0,0,.6182.83c.0309.0309.0618.0618.0927.0883a1.0825,1.0825,0,0,1-.57,1.7795.4858.4858,0,0,1-.11.0221,1.3427,1.3427,0,0,1-.23.0044c-.0044,0-.0088-.0044-.0133,0-.0706-.0176-.1413-.0309-.2119-.0441a6.6211,6.6211,0,0,1-3.325-1.806,6.4237,6.4237,0,0,1-.8037-.9759h-.0044l-.0088-.0088a6.74,6.74,0,0,1-.9979-2.38h-.0133s-.5255-4.9146-1.0906-6.0847l-.0045-.0045a5.7372,5.7372,0,0,0-3.952-3.7135c-6.1554-1.3468-7.71,6.5528-7.7671,6.8663a.022.022,0,0,0-.0044.0133.6518.6518,0,0,1-.1943.415.68.68,0,0,1-.7948.1237v-.0044S7.7581,10.005,17.83,9.74c5.5019-.1457,9.3126,6.6279,9.9485,11.9664a2.1951,2.1951,0,0,0-.5652-.0044A2.2361,2.2361,0,0,0,25.2574,24.1793Z"/>
  <path class="cls-22"
        d="M33.8237,21.5873v-.0132C32.3577,15.6482,27.4784,9.7931,22.59,7.6692,16.7969,5.1567,11.5909,8.5214,10.1028,9.93,5.9963,13.8157,6.69,21.446,6.7381,21.9361v.0089c0,.0088.0044.0132.0044.0176a.6848.6848,0,0,0,.19.3974.7251.7251,0,0,0,.1678.1193S7.7581,10.005,17.83,9.74c5.5019-.1457,9.3126,6.6279,9.9485,11.9664a2.2267,2.2267,0,0,1,1.912,1.9473,9.1762,9.1762,0,0,1-.8655,4.3362v.0044q-.06.0995-.1192.1855l-.0089.0132a1.1408,1.1408,0,0,0,.2107,1.2735,1.2637,1.2637,0,0,0,1.294.1111c.0513-.0243.105-.0428.1556-.0687.0044.0044.0089-.0044.0089-.0044a6.4744,6.4744,0,0,0,1.7927-1.2761A6.65,6.65,0,0,0,33.8237,21.5873Z"/>
</svg>
